<?xml version="1.0" encoding="UTF-8" standalone="no"?>
<!DOCTYPE svg PUBLIC "-//W3C//DTD SVG 1.1//EN"
 "http://www.w3.org/Graphics/SVG/1.1/DTD/svg11.dtd">
<!-- Generated by graphviz version 2.47.3 (20210619.1520)
 -->
<!-- Title: dependencies Pages: 1 -->
<svg width="632pt" height="247pt"
 viewBox="0.00 0.00 632.00 246.80" xmlns="http://www.w3.org/2000/svg" xmlns:xlink="http://www.w3.org/1999/xlink">
<g id="graph0" class="graph" transform="scale(1 1) rotate(0) translate(4 242.8)">
<title>dependencies</title>
<polygon fill="white" stroke="transparent" points="-4,4 -4,-242.8 628,-242.8 628,4 -4,4"/>
<text text-anchor="middle" x="312" y="-8.2" font-family="sans-serif" font-size="14.00">dependencies</text>
<g id="clust1" class="cluster">
<title>cluster_StatusModule</title>
<polygon fill="none" stroke="black" stroke-dasharray="1,5" points="8,-32.8 8,-230.8 616,-230.8 616,-32.8 8,-32.8"/>
</g>
<g id="clust5" class="cluster">
<title>cluster_StatusModule_imports</title>
<polygon fill="none" stroke="black" points="494,-40.8 494,-92.8 608,-92.8 608,-40.8 494,-40.8"/>
</g>
<g id="clust6" class="cluster">
<title>cluster_StatusModule_exports</title>
<polygon fill="none" stroke="black" points="144,-170.8 144,-222.8 468,-222.8 468,-170.8 144,-170.8"/>
</g>
<g id="clust2" class="cluster">
<title>cluster_StatusModule_declarations</title>
<polygon fill="none" stroke="black" points="168,-40.8 168,-92.8 486,-92.8 486,-40.8 168,-40.8"/>
</g>
<g id="clust8" class="cluster">
<title>cluster_StatusModule_providers</title>
<polygon fill="none" stroke="black" points="16,-40.8 16,-92.8 160,-92.8 160,-40.8 16,-40.8"/>
</g>
<!-- StatusFormComponent -->
<g id="node1" class="node">
<title>StatusFormComponent</title>
<polygon fill="#ffffb3" stroke="black" points="477.89,-84.8 332.11,-84.8 332.11,-48.8 477.89,-48.8 477.89,-84.8"/>
<text text-anchor="middle" x="405" y="-62.6" font-family="Times,serif" font-size="14.00">StatusFormComponent</text>
</g>
<!-- StatusModule -->
<g id="node3" class="node">
<title>StatusModule</title>
<polygon fill="#8dd3c7" stroke="black" points="349.77,-149.8 346.77,-153.8 325.77,-153.8 322.77,-149.8 256.23,-149.8 256.23,-113.8 349.77,-113.8 349.77,-149.8"/>
<text text-anchor="middle" x="303" y="-127.6" font-family="Times,serif" font-size="14.00">StatusModule</text>
</g>
<!-- StatusFormComponent&#45;&gt;StatusModule -->
<g id="edge1" class="edge">
<title>StatusFormComponent&#45;&gt;StatusModule</title>
<path fill="none" stroke="black" d="M340.97,-84.91C340.97,-84.91 340.97,-103.79 340.97,-103.79"/>
<polygon fill="black" stroke="black" points="337.47,-103.79 340.97,-113.79 344.47,-103.79 337.47,-103.79"/>
</g>
<!-- StatusListComponent -->
<g id="node2" class="node">
<title>StatusListComponent</title>
<polygon fill="#ffffb3" stroke="black" points="313.83,-84.8 176.17,-84.8 176.17,-48.8 313.83,-48.8 313.83,-84.8"/>
<text text-anchor="middle" x="245" y="-62.6" font-family="Times,serif" font-size="14.00">StatusListComponent</text>
</g>
<!-- StatusListComponent&#45;&gt;StatusModule -->
<g id="edge2" class="edge">
<title>StatusListComponent&#45;&gt;StatusModule</title>
<path fill="none" stroke="black" d="M284.89,-84.91C284.89,-84.91 284.89,-103.79 284.89,-103.79"/>
<polygon fill="black" stroke="black" points="281.39,-103.79 284.89,-113.79 288.39,-103.79 281.39,-103.79"/>
</g>
<!-- StatusFormComponent  -->
<g id="node5" class="node">
<title>StatusFormComponent </title>
<polygon fill="#fb8072" stroke="black" points="459.89,-214.8 310.11,-214.8 310.11,-178.8 459.89,-178.8 459.89,-214.8"/>
<text text-anchor="middle" x="385" y="-192.6" font-family="Times,serif" font-size="14.00">StatusFormComponent </text>
</g>
<!-- StatusModule&#45;&gt;StatusFormComponent  -->
<g id="edge4" class="edge">
<title>StatusModule&#45;&gt;StatusFormComponent </title>
<path fill="none" stroke="black" stroke-dasharray="5,2" d="M330.1,-149.91C330.1,-149.91 330.1,-168.79 330.1,-168.79"/>
<polygon fill="black" stroke="black" points="326.6,-168.79 330.1,-178.79 333.6,-168.79 326.6,-168.79"/>
</g>
<!-- StatusListComponent  -->
<g id="node6" class="node">
<title>StatusListComponent </title>
<polygon fill="#fb8072" stroke="black" points="292.33,-214.8 151.67,-214.8 151.67,-178.8 292.33,-178.8 292.33,-214.8"/>
<text text-anchor="middle" x="222" y="-192.6" font-family="Times,serif" font-size="14.00">StatusListComponent </text>
</g>
<!-- StatusModule&#45;&gt;StatusListComponent  -->
<g id="edge5" class="edge">
<title>StatusModule&#45;&gt;StatusListComponent </title>
<path fill="none" stroke="black" stroke-dasharray="5,2" d="M274.27,-149.91C274.27,-149.91 274.27,-168.79 274.27,-168.79"/>
<polygon fill="black" stroke="black" points="270.77,-168.79 274.27,-178.79 277.77,-168.79 270.77,-168.79"/>
</g>
<!-- SharedModule -->
<g id="node4" class="node">
<title>SharedModule</title>
<polygon fill="#8dd3c7" stroke="black" points="600.42,-84.8 597.42,-88.8 576.42,-88.8 573.42,-84.8 501.58,-84.8 501.58,-48.8 600.42,-48.8 600.42,-84.8"/>
<text text-anchor="middle" x="551" y="-62.6" font-family="Times,serif" font-size="14.00">SharedModule</text>
</g>
<!-- SharedModule&#45;&gt;StatusModule -->
<g id="edge3" class="edge">
<title>SharedModule&#45;&gt;StatusModule</title>
<path fill="none" stroke="black" d="M551,-84.91C551,-104.14 551,-131.8 551,-131.8 551,-131.8 359.94,-131.8 359.94,-131.8"/>
<polygon fill="black" stroke="black" points="359.94,-128.3 349.94,-131.8 359.94,-135.3 359.94,-128.3"/>
</g>
<!-- StatusService -->
<g id="node7" class="node">
<title>StatusService</title>
<ellipse fill="#fdb462" stroke="black" cx="88" cy="-66.8" rx="63.7" ry="18"/>
<text text-anchor="middle" x="88" y="-62.6" font-family="Times,serif" font-size="14.00">StatusService</text>
</g>
<!-- StatusService&#45;&gt;StatusModule -->
<g id="edge6" class="edge">
<title>StatusService&#45;&gt;StatusModule</title>
<path fill="none" stroke="black" d="M87.99,-84.91C87.99,-104.14 87.99,-131.8 87.99,-131.8 87.99,-131.8 246.08,-131.8 246.08,-131.8"/>
<polygon fill="black" stroke="black" points="246.08,-135.3 256.08,-131.8 246.08,-128.3 246.08,-135.3"/>
</g>
</g>
</svg>
