<?xml version="1.0" encoding="UTF-8" standalone="no"?>
<!DOCTYPE svg PUBLIC "-//W3C//DTD SVG 1.1//EN"
 "http://www.w3.org/Graphics/SVG/1.1/DTD/svg11.dtd">
<!-- Generated by graphviz version 2.47.3 (20210619.1520)
 -->
<!-- Title: dependencies Pages: 1 -->
<svg width="687pt" height="247pt"
 viewBox="0.00 0.00 687.00 246.80" xmlns="http://www.w3.org/2000/svg" xmlns:xlink="http://www.w3.org/1999/xlink">
<g id="graph0" class="graph" transform="scale(1 1) rotate(0) translate(4 242.8)">
<title>dependencies</title>
<polygon fill="white" stroke="transparent" points="-4,4 -4,-242.8 683,-242.8 683,4 -4,4"/>
<text text-anchor="middle" x="339.5" y="-8.2" font-family="sans-serif" font-size="14.00">dependencies</text>
<g id="clust1" class="cluster">
<title>cluster_CategoryModule</title>
<polygon fill="none" stroke="black" stroke-dasharray="1,5" points="8,-32.8 8,-230.8 671,-230.8 671,-32.8 8,-32.8"/>
</g>
<g id="clust8" class="cluster">
<title>cluster_CategoryModule_providers</title>
<polygon fill="none" stroke="black" points="497,-40.8 497,-92.8 663,-92.8 663,-40.8 497,-40.8"/>
</g>
<g id="clust2" class="cluster">
<title>cluster_CategoryModule_declarations</title>
<polygon fill="none" stroke="black" points="138,-40.8 138,-92.8 489,-92.8 489,-40.8 138,-40.8"/>
</g>
<g id="clust6" class="cluster">
<title>cluster_CategoryModule_exports</title>
<polygon fill="none" stroke="black" points="130,-170.8 130,-222.8 488,-222.8 488,-170.8 130,-170.8"/>
</g>
<g id="clust5" class="cluster">
<title>cluster_CategoryModule_imports</title>
<polygon fill="none" stroke="black" points="16,-40.8 16,-92.8 130,-92.8 130,-40.8 16,-40.8"/>
</g>
<!-- CategoryFormComponent -->
<g id="node1" class="node">
<title>CategoryFormComponent</title>
<polygon fill="#ffffb3" stroke="black" points="481.48,-84.8 318.52,-84.8 318.52,-48.8 481.48,-48.8 481.48,-84.8"/>
<text text-anchor="middle" x="400" y="-62.6" font-family="Times,serif" font-size="14.00">CategoryFormComponent</text>
</g>
<!-- CategoryModule -->
<g id="node3" class="node">
<title>CategoryModule</title>
<polygon fill="#8dd3c7" stroke="black" points="362.37,-149.8 359.37,-153.8 338.37,-153.8 335.37,-149.8 251.63,-149.8 251.63,-113.8 362.37,-113.8 362.37,-149.8"/>
<text text-anchor="middle" x="307" y="-127.6" font-family="Times,serif" font-size="14.00">CategoryModule</text>
</g>
<!-- CategoryFormComponent&#45;&gt;CategoryModule -->
<g id="edge1" class="edge">
<title>CategoryFormComponent&#45;&gt;CategoryModule</title>
<path fill="none" stroke="black" d="M340.47,-84.91C340.47,-84.91 340.47,-103.79 340.47,-103.79"/>
<polygon fill="black" stroke="black" points="336.97,-103.79 340.47,-113.79 343.97,-103.79 336.97,-103.79"/>
</g>
<!-- CategoryListComponent -->
<g id="node2" class="node">
<title>CategoryListComponent</title>
<polygon fill="#ffffb3" stroke="black" points="300.43,-84.8 145.57,-84.8 145.57,-48.8 300.43,-48.8 300.43,-84.8"/>
<text text-anchor="middle" x="223" y="-62.6" font-family="Times,serif" font-size="14.00">CategoryListComponent</text>
</g>
<!-- CategoryListComponent&#45;&gt;CategoryModule -->
<g id="edge2" class="edge">
<title>CategoryListComponent&#45;&gt;CategoryModule</title>
<path fill="none" stroke="black" d="M275.89,-84.91C275.89,-84.91 275.89,-103.79 275.89,-103.79"/>
<polygon fill="black" stroke="black" points="272.39,-103.79 275.89,-113.79 279.39,-103.79 272.39,-103.79"/>
</g>
<!-- CategoryFormComponent  -->
<g id="node5" class="node">
<title>CategoryFormComponent </title>
<polygon fill="#fb8072" stroke="black" points="480.48,-214.8 313.52,-214.8 313.52,-178.8 480.48,-178.8 480.48,-214.8"/>
<text text-anchor="middle" x="397" y="-192.6" font-family="Times,serif" font-size="14.00">CategoryFormComponent </text>
</g>
<!-- CategoryModule&#45;&gt;CategoryFormComponent  -->
<g id="edge4" class="edge">
<title>CategoryModule&#45;&gt;CategoryFormComponent </title>
<path fill="none" stroke="black" stroke-dasharray="5,2" d="M338.1,-149.91C338.1,-149.91 338.1,-168.79 338.1,-168.79"/>
<polygon fill="black" stroke="black" points="334.6,-168.79 338.1,-178.79 341.6,-168.79 334.6,-168.79"/>
</g>
<!-- CategoryListComponent  -->
<g id="node6" class="node">
<title>CategoryListComponent </title>
<polygon fill="#fb8072" stroke="black" points="295.93,-214.8 138.07,-214.8 138.07,-178.8 295.93,-178.8 295.93,-214.8"/>
<text text-anchor="middle" x="217" y="-192.6" font-family="Times,serif" font-size="14.00">CategoryListComponent </text>
</g>
<!-- CategoryModule&#45;&gt;CategoryListComponent  -->
<g id="edge5" class="edge">
<title>CategoryModule&#45;&gt;CategoryListComponent </title>
<path fill="none" stroke="black" stroke-dasharray="5,2" d="M273.77,-149.91C273.77,-149.91 273.77,-168.79 273.77,-168.79"/>
<polygon fill="black" stroke="black" points="270.27,-168.79 273.77,-178.79 277.27,-168.79 270.27,-168.79"/>
</g>
<!-- SharedModule -->
<g id="node4" class="node">
<title>SharedModule</title>
<polygon fill="#8dd3c7" stroke="black" points="122.42,-84.8 119.42,-88.8 98.42,-88.8 95.42,-84.8 23.58,-84.8 23.58,-48.8 122.42,-48.8 122.42,-84.8"/>
<text text-anchor="middle" x="73" y="-62.6" font-family="Times,serif" font-size="14.00">SharedModule</text>
</g>
<!-- SharedModule&#45;&gt;CategoryModule -->
<g id="edge3" class="edge">
<title>SharedModule&#45;&gt;CategoryModule</title>
<path fill="none" stroke="black" d="M73,-84.91C73,-104.14 73,-131.8 73,-131.8 73,-131.8 241.55,-131.8 241.55,-131.8"/>
<polygon fill="black" stroke="black" points="241.55,-135.3 251.55,-131.8 241.55,-128.3 241.55,-135.3"/>
</g>
<!-- CategoryService -->
<g id="node7" class="node">
<title>CategoryService</title>
<ellipse fill="#fdb462" stroke="black" cx="580" cy="-66.8" rx="75.28" ry="18"/>
<text text-anchor="middle" x="580" y="-62.6" font-family="Times,serif" font-size="14.00">CategoryService</text>
</g>
<!-- CategoryService&#45;&gt;CategoryModule -->
<g id="edge6" class="edge">
<title>CategoryService&#45;&gt;CategoryModule</title>
<path fill="none" stroke="black" d="M580,-84.91C580,-104.14 580,-131.8 580,-131.8 580,-131.8 372.57,-131.8 372.57,-131.8"/>
<polygon fill="black" stroke="black" points="372.57,-128.3 362.57,-131.8 372.57,-135.3 372.57,-128.3"/>
</g>
</g>
</svg>
