<?xml version="1.0" encoding="UTF-8" standalone="no"?>
<!DOCTYPE svg PUBLIC "-//W3C//DTD SVG 1.1//EN"
 "http://www.w3.org/Graphics/SVG/1.1/DTD/svg11.dtd">
<!-- Generated by graphviz version 2.47.3 (20210619.1520)
 -->
<!-- Title: dependencies Pages: 1 -->
<svg width="395pt" height="247pt"
 viewBox="0.00 0.00 395.00 246.80" xmlns="http://www.w3.org/2000/svg" xmlns:xlink="http://www.w3.org/1999/xlink">
<g id="graph0" class="graph" transform="scale(1 1) rotate(0) translate(4 242.8)">
<title>dependencies</title>
<polygon fill="white" stroke="transparent" points="-4,4 -4,-242.8 391,-242.8 391,4 -4,4"/>
<text text-anchor="middle" x="193.5" y="-8.2" font-family="sans-serif" font-size="14.00">dependencies</text>
<g id="clust1" class="cluster">
<title>cluster_AdminModule</title>
<polygon fill="none" stroke="black" stroke-dasharray="1,5" points="8,-32.8 8,-230.8 379,-230.8 379,-32.8 8,-32.8"/>
</g>
<g id="clust3" class="cluster">
<title>cluster_AdminModule_imports</title>
<polygon fill="none" stroke="black" points="16,-40.8 16,-92.8 371,-92.8 371,-40.8 16,-40.8"/>
</g>
<g id="clust4" class="cluster">
<title>cluster_AdminModule_exports</title>
<polygon fill="none" stroke="black" points="71,-170.8 71,-222.8 317,-222.8 317,-170.8 71,-170.8"/>
</g>
<!-- CategoryModule -->
<g id="node1" class="node">
<title>CategoryModule</title>
<polygon fill="#8dd3c7" stroke="black" points="363.37,-84.8 360.37,-88.8 339.37,-88.8 336.37,-84.8 252.63,-84.8 252.63,-48.8 363.37,-48.8 363.37,-84.8"/>
<text text-anchor="middle" x="308" y="-62.6" font-family="Times,serif" font-size="14.00">CategoryModule</text>
</g>
<!-- AdminModule -->
<g id="node4" class="node">
<title>AdminModule</title>
<polygon fill="#8dd3c7" stroke="black" points="234.44,-149.8 231.44,-153.8 210.44,-153.8 207.44,-149.8 135.56,-149.8 135.56,-113.8 234.44,-113.8 234.44,-149.8"/>
<text text-anchor="middle" x="185" y="-127.6" font-family="Times,serif" font-size="14.00">AdminModule</text>
</g>
<!-- CategoryModule&#45;&gt;AdminModule -->
<g id="edge1" class="edge">
<title>CategoryModule&#45;&gt;AdminModule</title>
<path fill="none" stroke="black" d="M280.88,-84.91C280.88,-104.14 280.88,-131.8 280.88,-131.8 280.88,-131.8 244.34,-131.8 244.34,-131.8"/>
<polygon fill="black" stroke="black" points="244.34,-128.3 234.34,-131.8 244.34,-135.3 244.34,-128.3"/>
</g>
<!-- SharedModule -->
<g id="node2" class="node">
<title>SharedModule</title>
<polygon fill="#8dd3c7" stroke="black" points="234.42,-84.8 231.42,-88.8 210.42,-88.8 207.42,-84.8 135.58,-84.8 135.58,-48.8 234.42,-48.8 234.42,-84.8"/>
<text text-anchor="middle" x="185" y="-62.6" font-family="Times,serif" font-size="14.00">SharedModule</text>
</g>
<!-- SharedModule&#45;&gt;AdminModule -->
<g id="edge2" class="edge">
<title>SharedModule&#45;&gt;AdminModule</title>
<path fill="none" stroke="black" d="M185,-84.91C185,-84.91 185,-103.79 185,-103.79"/>
<polygon fill="black" stroke="black" points="181.5,-103.79 185,-113.79 188.5,-103.79 181.5,-103.79"/>
</g>
<!-- StatusModule -->
<g id="node3" class="node">
<title>StatusModule</title>
<polygon fill="#8dd3c7" stroke="black" points="117.77,-84.8 114.77,-88.8 93.77,-88.8 90.77,-84.8 24.23,-84.8 24.23,-48.8 117.77,-48.8 117.77,-84.8"/>
<text text-anchor="middle" x="71" y="-62.6" font-family="Times,serif" font-size="14.00">StatusModule</text>
</g>
<!-- StatusModule&#45;&gt;AdminModule -->
<g id="edge3" class="edge">
<title>StatusModule&#45;&gt;AdminModule</title>
<path fill="none" stroke="black" d="M98.62,-84.91C98.62,-104.14 98.62,-131.8 98.62,-131.8 98.62,-131.8 125.76,-131.8 125.76,-131.8"/>
<polygon fill="black" stroke="black" points="125.76,-135.3 135.76,-131.8 125.76,-128.3 125.76,-135.3"/>
</g>
<!-- CategoryModule  -->
<g id="node5" class="node">
<title>CategoryModule </title>
<polygon fill="#fb8072" stroke="black" points="309.37,-214.8 194.63,-214.8 194.63,-178.8 309.37,-178.8 309.37,-214.8"/>
<text text-anchor="middle" x="252" y="-192.6" font-family="Times,serif" font-size="14.00">CategoryModule </text>
</g>
<!-- AdminModule&#45;&gt;CategoryModule  -->
<g id="edge4" class="edge">
<title>AdminModule&#45;&gt;CategoryModule </title>
<path fill="none" stroke="black" stroke-dasharray="5,2" d="M214.52,-149.91C214.52,-149.91 214.52,-168.79 214.52,-168.79"/>
<polygon fill="black" stroke="black" points="211.02,-168.79 214.52,-178.79 218.02,-168.79 211.02,-168.79"/>
</g>
<!-- StatusModule  -->
<g id="node6" class="node">
<title>StatusModule </title>
<polygon fill="#fb8072" stroke="black" points="176.77,-214.8 79.23,-214.8 79.23,-178.8 176.77,-178.8 176.77,-214.8"/>
<text text-anchor="middle" x="128" y="-192.6" font-family="Times,serif" font-size="14.00">StatusModule </text>
</g>
<!-- AdminModule&#45;&gt;StatusModule  -->
<g id="edge5" class="edge">
<title>AdminModule&#45;&gt;StatusModule </title>
<path fill="none" stroke="black" stroke-dasharray="5,2" d="M156.21,-149.91C156.21,-149.91 156.21,-168.79 156.21,-168.79"/>
<polygon fill="black" stroke="black" points="152.71,-168.79 156.21,-178.79 159.71,-168.79 152.71,-168.79"/>
</g>
</g>
</svg>
