<?xml version="1.0" encoding="UTF-8" standalone="no"?>
<!DOCTYPE svg PUBLIC "-//W3C//DTD SVG 1.1//EN"
 "http://www.w3.org/Graphics/SVG/1.1/DTD/svg11.dtd">
<!-- Generated by graphviz version 2.47.3 (20210619.1520)
 -->
<!-- Title: dependencies Pages: 1 -->
<svg width="929pt" height="247pt"
 viewBox="0.00 0.00 929.00 246.80" xmlns="http://www.w3.org/2000/svg" xmlns:xlink="http://www.w3.org/1999/xlink">
<g id="graph0" class="graph" transform="scale(1 1) rotate(0) translate(4 242.8)">
<title>dependencies</title>
<polygon fill="white" stroke="transparent" points="-4,4 -4,-242.8 925,-242.8 925,4 -4,4"/>
<text text-anchor="middle" x="460.5" y="-8.2" font-family="sans-serif" font-size="14.00">dependencies</text>
<g id="clust1" class="cluster">
<title>cluster_AppModule</title>
<polygon fill="none" stroke="black" stroke-dasharray="1,5" points="8,-32.8 8,-230.8 913,-230.8 913,-32.8 8,-32.8"/>
</g>
<g id="clust2" class="cluster">
<title>cluster_AppModule_declarations</title>
<polygon fill="none" stroke="black" points="518,-40.8 518,-92.8 905,-92.8 905,-40.8 518,-40.8"/>
</g>
<g id="clust6" class="cluster">
<title>cluster_AppModule_imports</title>
<polygon fill="none" stroke="black" points="16,-40.8 16,-92.8 510,-92.8 510,-40.8 16,-40.8"/>
</g>
<g id="clust8" class="cluster">
<title>cluster_AppModule_bootstrap</title>
<polygon fill="none" stroke="black" points="391,-170.8 391,-222.8 515,-222.8 515,-170.8 391,-170.8"/>
</g>
<!-- AppComponent -->
<g id="node1" class="node">
<title>AppComponent</title>
<polygon fill="#ffffb3" stroke="black" points="896.94,-84.8 791.06,-84.8 791.06,-48.8 896.94,-48.8 896.94,-84.8"/>
<text text-anchor="middle" x="844" y="-62.6" font-family="Times,serif" font-size="14.00">AppComponent</text>
</g>
<!-- AppModule -->
<g id="node4" class="node">
<title>AppModule</title>
<polygon fill="#8dd3c7" stroke="black" points="494.66,-149.8 491.66,-153.8 470.66,-153.8 467.66,-149.8 411.34,-149.8 411.34,-113.8 494.66,-113.8 494.66,-149.8"/>
<text text-anchor="middle" x="453" y="-127.6" font-family="Times,serif" font-size="14.00">AppModule</text>
</g>
<!-- AppComponent&#45;&gt;AppModule -->
<g id="edge1" class="edge">
<title>AppComponent&#45;&gt;AppModule</title>
<path fill="none" stroke="black" d="M844,-85.09C844,-107.01 844,-140.8 844,-140.8 844,-140.8 504.84,-140.8 504.84,-140.8"/>
<polygon fill="black" stroke="black" points="504.84,-137.3 494.84,-140.8 504.84,-144.3 504.84,-137.3"/>
</g>
<!-- HomeComponent -->
<g id="node2" class="node">
<title>HomeComponent</title>
<polygon fill="#ffffb3" stroke="black" points="773.55,-84.8 658.45,-84.8 658.45,-48.8 773.55,-48.8 773.55,-84.8"/>
<text text-anchor="middle" x="716" y="-62.6" font-family="Times,serif" font-size="14.00">HomeComponent</text>
</g>
<!-- HomeComponent&#45;&gt;AppModule -->
<g id="edge2" class="edge">
<title>HomeComponent&#45;&gt;AppModule</title>
<path fill="none" stroke="black" d="M716,-84.91C716,-104.14 716,-131.8 716,-131.8 716,-131.8 504.67,-131.8 504.67,-131.8"/>
<polygon fill="black" stroke="black" points="504.67,-128.3 494.67,-131.8 504.67,-135.3 504.67,-128.3"/>
</g>
<!-- MenuComponent -->
<g id="node3" class="node">
<title>MenuComponent</title>
<polygon fill="#ffffb3" stroke="black" points="639.99,-84.8 526.01,-84.8 526.01,-48.8 639.99,-48.8 639.99,-84.8"/>
<text text-anchor="middle" x="583" y="-62.6" font-family="Times,serif" font-size="14.00">MenuComponent</text>
</g>
<!-- MenuComponent&#45;&gt;AppModule -->
<g id="edge3" class="edge">
<title>MenuComponent&#45;&gt;AppModule</title>
<path fill="none" stroke="black" d="M583,-84.83C583,-101.2 583,-122.8 583,-122.8 583,-122.8 504.85,-122.8 504.85,-122.8"/>
<polygon fill="black" stroke="black" points="504.85,-119.3 494.85,-122.8 504.85,-126.3 504.85,-119.3"/>
</g>
<!-- AppComponent  -->
<g id="node9" class="node">
<title>AppComponent </title>
<polygon fill="#80b1d3" stroke="black" points="507.44,-214.8 398.56,-214.8 398.56,-178.8 507.44,-178.8 507.44,-214.8"/>
<text text-anchor="middle" x="453" y="-192.6" font-family="Times,serif" font-size="14.00">AppComponent </text>
</g>
<!-- AppModule&#45;&gt;AppComponent  -->
<g id="edge8" class="edge">
<title>AppModule&#45;&gt;AppComponent </title>
<path fill="none" stroke="black" stroke-dasharray="1,5" d="M453,-149.91C453,-149.91 453,-168.79 453,-168.79"/>
<polygon fill="black" stroke="black" points="449.5,-168.79 453,-178.79 456.5,-168.79 449.5,-168.79"/>
</g>
<!-- AdminModule -->
<g id="node5" class="node">
<title>AdminModule</title>
<polygon fill="#8dd3c7" stroke="black" points="502.44,-84.8 499.44,-88.8 478.44,-88.8 475.44,-84.8 403.56,-84.8 403.56,-48.8 502.44,-48.8 502.44,-84.8"/>
<text text-anchor="middle" x="453" y="-62.6" font-family="Times,serif" font-size="14.00">AdminModule</text>
</g>
<!-- AdminModule&#45;&gt;AppModule -->
<g id="edge4" class="edge">
<title>AdminModule&#45;&gt;AppModule</title>
<path fill="none" stroke="black" d="M453,-84.91C453,-84.91 453,-103.79 453,-103.79"/>
<polygon fill="black" stroke="black" points="449.5,-103.79 453,-113.79 456.5,-103.79 449.5,-103.79"/>
</g>
<!-- AppRoutingModule -->
<g id="node6" class="node">
<title>AppRoutingModule</title>
<polygon fill="#8dd3c7" stroke="black" points="385.27,-84.8 382.27,-88.8 361.27,-88.8 358.27,-84.8 256.73,-84.8 256.73,-48.8 385.27,-48.8 385.27,-84.8"/>
<text text-anchor="middle" x="321" y="-62.6" font-family="Times,serif" font-size="14.00">AppRoutingModule</text>
</g>
<!-- AppRoutingModule&#45;&gt;AppModule -->
<g id="edge5" class="edge">
<title>AppRoutingModule&#45;&gt;AppModule</title>
<path fill="none" stroke="black" d="M321,-84.83C321,-101.2 321,-122.8 321,-122.8 321,-122.8 401.23,-122.8 401.23,-122.8"/>
<polygon fill="black" stroke="black" points="401.23,-126.3 411.23,-122.8 401.23,-119.3 401.23,-126.3"/>
</g>
<!-- ArticleModule -->
<g id="node7" class="node">
<title>ArticleModule</title>
<polygon fill="#8dd3c7" stroke="black" points="238.42,-84.8 235.42,-88.8 214.42,-88.8 211.42,-84.8 139.58,-84.8 139.58,-48.8 238.42,-48.8 238.42,-84.8"/>
<text text-anchor="middle" x="189" y="-62.6" font-family="Times,serif" font-size="14.00">ArticleModule</text>
</g>
<!-- ArticleModule&#45;&gt;AppModule -->
<g id="edge6" class="edge">
<title>ArticleModule&#45;&gt;AppModule</title>
<path fill="none" stroke="black" d="M189,-84.91C189,-104.14 189,-131.8 189,-131.8 189,-131.8 401.17,-131.8 401.17,-131.8"/>
<polygon fill="black" stroke="black" points="401.17,-135.3 411.17,-131.8 401.17,-128.3 401.17,-135.3"/>
</g>
<!-- SharedModule -->
<g id="node8" class="node">
<title>SharedModule</title>
<polygon fill="#8dd3c7" stroke="black" points="122.42,-84.8 119.42,-88.8 98.42,-88.8 95.42,-84.8 23.58,-84.8 23.58,-48.8 122.42,-48.8 122.42,-84.8"/>
<text text-anchor="middle" x="73" y="-62.6" font-family="Times,serif" font-size="14.00">SharedModule</text>
</g>
<!-- SharedModule&#45;&gt;AppModule -->
<g id="edge7" class="edge">
<title>SharedModule&#45;&gt;AppModule</title>
<path fill="none" stroke="black" d="M73,-85.09C73,-107.01 73,-140.8 73,-140.8 73,-140.8 401.25,-140.8 401.25,-140.8"/>
<polygon fill="black" stroke="black" points="401.25,-144.3 411.25,-140.8 401.25,-137.3 401.25,-144.3"/>
</g>
</g>
</svg>
